<svg width="19" height="26" viewBox="0 0 19 26" fill="none" xmlns="http://www.w3.org/2000/svg">
<path d="M9.49993 16.9C10.8738 16.8985 12.1909 16.3501 13.1623 15.3752C14.1338 14.4004 14.6802 13.0787 14.6818 11.7V5.2C14.6818 3.82087 14.1358 2.49823 13.164 1.52304C12.1923 0.547856 10.8742 0 9.49993 0C8.12563 0 6.80761 0.547856 5.83583 1.52304C4.86406 2.49823 4.31812 3.82087 4.31812 5.2V11.7C4.31966 13.0787 4.86609 14.4004 5.83754 15.3752C6.80898 16.3501 8.1261 16.8985 9.49993 16.9ZM6.04539 5.2C6.04539 4.28058 6.40935 3.39882 7.0572 2.7487C7.70505 2.09857 8.58373 1.73333 9.49993 1.73333C10.4161 1.73333 11.2948 2.09857 11.9427 2.7487C12.5905 3.39882 12.9545 4.28058 12.9545 5.2V11.7C12.9545 12.6194 12.5905 13.5012 11.9427 14.1513C11.2948 14.8014 10.4161 15.1667 9.49993 15.1667C8.58373 15.1667 7.70505 14.8014 7.0572 14.1513C6.40935 13.5012 6.04539 12.6194 6.04539 11.7V5.2Z" fill="#ACC4FE"/>
<path d="M17.2727 8.66667V11.7C17.2727 16.0008 13.7858 19.5 9.5 19.5C5.2142 19.5 1.72727 16.0008 1.72727 11.7V8.66667H0V11.7C0 16.6645 3.8013 20.7542 8.63636 21.1935V26H10.3636V21.1935C15.1987 20.7542 19 16.6645 19 11.7V8.66667H17.2727Z" fill="#ACC4FE"/>
</svg>
