<svg width="37" height="35" viewBox="0 0 37 35" fill="none" xmlns="http://www.w3.org/2000/svg">
<g id="&#240;&#159;&#166;&#134; icon &#34;heart&#34;">
<path id="Vector" d="M33.5952 3.03304C32.6821 2.07098 31.5979 1.30794 30.4048 0.787516C29.2116 0.267093 27.9328 -0.000510171 26.6414 7.30169e-07C25.35 0.000511631 24.0714 0.269126 22.8786 0.790494C21.6858 1.31186 20.6022 2.07576 19.6897 3.03854L18.4986 4.3087L17.3175 3.04129L17.3098 3.0332C16.3971 2.0716 15.3135 1.30881 14.121 0.788394C12.9285 0.267978 11.6504 0.000123251 10.3596 0.000123251C9.06885 0.000123251 7.79072 0.267978 6.59821 0.788394C5.4057 1.30881 4.32215 2.0716 3.40945 3.0332L2.87883 3.59223C1.03555 5.53426 0 8.16821 0 10.9146C0 13.6611 1.03555 16.295 2.87883 18.2371L16.8831 32.9913L18.4646 34.737L18.5023 34.6972L18.5432 34.7403L20.0249 33.0932L34.1258 18.2368C35.9664 16.2932 37 13.6599 37 10.9144C37 8.16893 35.9664 5.53556 34.1258 3.59199L33.5952 3.03304ZM32.3879 16.4062L18.5023 31.036L4.61626 16.4062C3.2338 14.9497 2.45715 12.9743 2.45715 10.9144C2.45715 8.85462 3.2338 6.87916 4.61626 5.42264L5.14695 4.86361C6.52874 3.40781 8.40264 2.58962 10.3568 2.58884C12.3109 2.58807 14.1854 3.40478 15.5682 4.85948L18.4933 7.99743L21.4324 4.86361C22.1169 4.14241 22.9296 3.57032 23.8239 3.18001C24.7183 2.78969 25.6769 2.5888 26.645 2.5888C27.6131 2.5888 28.5717 2.78969 29.4661 3.18001C30.3604 3.57032 31.1731 4.14241 31.8576 4.86361L32.3882 5.42256C33.7686 6.88028 34.5438 8.85535 34.5438 10.9145C34.5437 12.9736 33.7684 14.9486 32.3879 16.4062Z" fill="black"/>
</g>
</svg>
