<?xml version="1.0" encoding="UTF-8"?><svg id="Layer_1" xmlns="http://www.w3.org/2000/svg" viewBox="0 0 1080 1080"><path d="m948.17,335.05c-62.21-120.53-193.53-207.13-342.7-226-115.19-14.59-230.32,23.16-324.09,106.35-104.91,93.02-167.02,228.54-166.18,362.54.9,148.18,63.14,273.71,170.76,344.36,74.48,48.91,182.37,77.86,282.66,77.86,19.48,0,38.69-1.09,57.29-3.35,50.3-6.09,100.99-24.24,146.61-52.5,21.92-13.6,43.15-29.85,63.05-48.34,56.36-52.29,100.56-118.72,127.79-192.14,46.56-125.47,41.01-259.9-15.2-368.78Zm3.89,270.78c-21.08,129.27-96.52,241.62-207.07,308.2-122.88,74.03-293.58,75.99-415.1,4.79-62.09-36.4-112.96-94.44-143.32-163.52-3.77-8.59-7.3-17.4-10.49-26.23-48.28-133.01-27.02-284.92,56.87-406.35,79.94-115.73,203.39-183.19,338.69-185.02,1.87-.03,3.74-.03,5.61-.03,125.29,0,243.37,57.47,309.17,150.86,10.61,15.08,20.23,31.36,28.65,48.43,38.57,78.43,52.05,176.43,37,268.88Z" fill="#e5443c"/><path d="m915.06,336.95c-8.41-17.07-18.03-33.35-28.65-48.43-65.8-93.39-183.88-150.86-309.17-150.86-1.87,0-3.74,0-5.61.03-135.3,1.84-258.75,69.29-338.69,185.02-83.89,121.43-105.15,273.35-56.87,406.35,3.2,8.84,6.72,17.64,10.49,26.23,30.36,69.08,81.23,127.13,143.32,163.52,121.52,71.19,292.22,69.23,415.1-4.79,110.54-66.58,185.99-178.93,207.07-308.2,15.05-92.45,1.57-190.45-37-268.88Zm-567.74,242.86c-11.67-26.69-10.19-58.02.97-84.67,6.88-16.37,17.4-31.12,30.67-42.58,2.38-2.05,4.86-3.98,7.42-5.79-18.03-11.67-38.63-19.39-59.67-23.4l-7.81-1.21c-5.52-1.03-10.64.03-15.8-3.41-2.77-1.81-5.58-4.34-9.2-9.32l-1.21-5.91c3.02-8.29,10.25-14.44,18.67-14.29,20.14-.9,40.47,3.11,58.8,11.34,17.7,7.69,32.69,19.48,46.53,32.45,1.03,1.12,7.12,7.63,8.29,8.93,1.09,1.18,2.5,2.65,3.8,4.13.93,1.09,1.84,2.14,2.5,3.14,5.01,6.42,14.69,18.6,19.48,25,11.73,13.99,24.88,27.56,39.77,38.24,4.43,3.23,9.02,6.15,13.75,8.8,8.5,4.82,21.23,8.93,30.24,12.69l1.3,5.91c-.42.24-.87.39-1.3.6-6.27,55.72-57.53,105.39-113.8,95.08-30.91-5.7-60.31-25.72-73.39-55.72Zm339.5,235.68c-12.69,8.14-29.91,8.68-42.91,6.88-21.68-2.71-41.34-11.4-61.82-16.71-22.59-4.28-50.48-3.08-73.61,1.42-19.72,4.16-46.65,17.94-69.96,16.92-39.44-1.24-48.07-37.66-32.63-68.6,41.13-88.44,161.56-102.73,239.6-57.26,27.53,16.16,55.6,39.08,61.91,72.76,2.92,17.19-5.58,35.49-20.6,44.6Zm148.84-406.05c-3.62,4.98-6.42,7.51-9.2,9.32-5.16,3.44-10.28,2.38-15.8,3.41l-7.81,1.21c-18.18,3.47-36.03,9.71-52.2,18.85,6.63,2.99,12.82,6.51,18.24,10.61,24.85,18.79,35.25,49.87,33.83,80.87-2.68,58.38-55.88,112.56-114.4,101.83-30.91-5.7-60.31-25.72-73.43-55.72-5.01-11.43-7.54-23.73-7.99-36.15-4.52-.3-9.02-1.42-13.18-3.8l1.3-5.91c9.02-3.77,21.74-7.87,30.24-12.69,4.73-2.65,9.32-5.58,13.75-8.8,14.93-10.67,28.04-24.24,39.77-38.24,4.79-6.39,14.47-18.57,19.48-25,.66-1,1.57-2.05,2.53-3.14,1.27-1.48,2.68-2.96,3.77-4.13,1.18-1.3,7.27-7.81,8.29-8.93,13.84-12.97,28.83-24.76,46.53-32.45,18.33-8.23,38.66-12.24,58.8-11.34,8.41-.15,15.68,6,18.67,14.29l-1.21,5.91Z" fill="#fc6256"/><path d="m818.2,389.24c-20.14-.9-40.47,3.11-58.8,11.34-17.7,7.69-32.69,19.48-46.53,32.45-1.02,1.12-7.12,7.63-8.29,8.93-1.09,1.18-2.5,2.65-3.77,4.13-.96,1.09-1.87,2.14-2.53,3.14-5.01,6.42-14.69,18.6-19.48,25-11.73,13.99-24.85,27.56-39.77,38.24-4.43,3.23-9.02,6.15-13.75,8.8-8.5,4.82-21.23,8.93-30.24,12.69l-1.3,5.91c4.16,2.38,8.65,3.5,13.18,3.8.45,12.42,2.99,24.73,7.99,36.15,13.12,30,42.52,50.03,73.43,55.72,58.53,10.73,111.72-43.45,114.4-101.83,1.42-31-8.99-62.09-33.83-80.87-5.43-4.1-11.61-7.63-18.24-10.61,16.16-9.14,34.01-15.38,52.2-18.85l7.81-1.21c5.52-1.03,10.64.03,15.8-3.41,2.77-1.81,5.58-4.34,9.2-9.32l1.21-5.91c-2.99-8.29-10.25-14.44-18.67-14.29Zm-43.06,103.37c7.12,12.54,9.98,27.5,8.71,41.97-.15,1.84-.39,3.71-.66,5.55-8.41,55.63-69.38,92.69-119.14,64.98-20.2-11.22-35.67-32.2-38.14-56.03-.27-2.68-.36-5.4-.33-8.08,4.16-1.27,8.2-2.71,12.15-4.4,27.62-11.91,49.84-34.01,69.08-56.66,2.99-3.44,6.6-7.42,10.04-11.13,1.54-1.66,3.02-3.23,4.37-4.67,2.14-1.81,5.22-4.64,8.05-7.12,18.85,5.55,36.15,18.39,45.86,35.58Z" fill="#3a3736"/><path d="m783.86,534.58c-.15,1.84-.39,3.71-.66,5.55-8.41,55.63-69.38,92.69-119.14,64.98-20.2-11.22-35.67-32.2-38.14-56.03-.27-2.68-.36-5.4-.33-8.08,4.16-1.27,8.2-2.71,12.15-4.4,27.62-11.91,49.84-34.01,69.08-56.66,2.99-3.44,6.6-7.42,10.04-11.13,1.54-1.66,3.02-3.23,4.37-4.67,2.14-1.81,5.22-4.64,8.05-7.12,18.85,5.55,36.15,18.39,45.86,35.58,7.12,12.54,9.98,27.5,8.71,41.97Z" fill="#fff"/><path d="m534.52,533.95c-9.02-3.77-21.74-7.87-30.24-12.69-4.73-2.65-9.32-5.58-13.75-8.8-14.9-10.67-28.04-24.24-39.77-38.24-4.79-6.39-14.47-18.57-19.48-25-.66-1-1.57-2.05-2.5-3.14-1.3-1.48-2.71-2.96-3.8-4.13-1.18-1.3-7.27-7.81-8.29-8.93-13.84-12.97-28.83-24.76-46.53-32.45-18.33-8.23-38.66-12.24-58.8-11.34-8.41-.15-15.65,6-18.67,14.29l1.21,5.91c3.62,4.98,6.42,7.51,9.2,9.32,5.16,3.44,10.28,2.38,15.8,3.41l7.81,1.21c21.05,4.01,41.64,11.73,59.67,23.4-2.56,1.81-5.04,3.74-7.42,5.79-13.27,11.46-23.79,26.2-30.67,42.58-11.16,26.66-12.63,57.99-.97,84.67,13.09,30,42.49,50.03,73.39,55.72,56.27,10.31,107.53-39.35,113.8-95.08.42-.21.87-.36,1.3-.6l-1.3-5.91Zm-138.07,71.16c-20.2-11.22-35.67-32.2-38.14-56.03-.36-3.68-.45-7.42-.3-11.13.84-18.03,7.9-36.03,18.42-50.12,8.08-10.8,18.42-19.42,30.09-25.27.63.57,1.27,1.12,1.81,1.57,1.36,1.45,2.84,3.02,4.37,4.67,3.44,3.71,7.06,7.69,10.04,11.13,19.24,22.65,41.46,44.75,69.08,56.66,4.52,1.93,9.2,3.65,14.02,4.98,2.99.87,6.06,1.51,9.14,1.87-10.28,53.76-69.78,88.83-118.54,61.66Z" fill="#3a3736"/><path d="m514.98,543.45c-10.28,53.76-69.78,88.83-118.54,61.66-20.2-11.22-35.67-32.2-38.14-56.03-.36-3.68-.45-7.42-.3-11.13.84-18.03,7.9-36.03,18.42-50.12,8.08-10.8,18.42-19.42,30.09-25.27.63.57,1.27,1.12,1.81,1.57,1.36,1.45,2.84,3.02,4.37,4.67,3.44,3.71,7.06,7.69,10.04,11.13,19.24,22.65,41.46,44.75,69.08,56.66,4.52,1.93,9.2,3.65,14.02,4.98,2.99.87,6.06,1.51,9.14,1.87Z" fill="#fff"/><path d="m470.93,576.98c7.96-12.53,8.86-28.3,2.99-41.76-13.6-31.23-51.6-20.14-65.02,5.41-2.79,5.31-4.31,11.1-4.45,16.99-.09.57-.19,1.13-.26,1.69-1,8.1.86,17.04,5.6,23.76,5.77,8.18,13.94,12.42,23.76,13.55,15.09,1.73,29.5-7.23,37.38-19.64Zm-32.43-23.28s.01,0,.02,0c0,.02,0,.02-.01.04,0-.01,0-.03,0-.04Zm.4-1.24c-.02.08-.05.15-.07.22,0,.01-.01.02-.02.03-.04-.17,0-.61.27-1.35,0,.08,0,.16,0,.23-.05.3-.1.6-.17.86Z" fill="#3a3736"/><path d="m692.79,521.54c-19.7,12.07-34.17,40.07-19.04,61.53,5.77,8.18,13.94,12.42,23.76,13.55,15.09,1.73,29.5-7.23,37.38-19.64,7.96-12.53,8.86-28.3,2.99-41.76-9.92-22.78-29.21-23.41-45.09-13.68Zm9.67,32.16s.01,0,.02,0c0,.02,0,.02-.01.04,0-.01,0-.03,0-.04Zm.4-1.24c-.02.08-.05.15-.07.22,0,.01-.01.02-.02.03-.04-.17,0-.61.27-1.35,0,.08,0,.16,0,.23-.05.3-.1.6-.17.86Z" fill="#3a3736"/><path d="m707.42,770.9c-6.3-33.68-34.38-56.6-61.91-72.76-78.04-45.47-198.47-31.18-239.6,57.26-15.44,30.94-6.81,67.36,32.63,68.6,23.31,1.03,50.24-12.76,69.96-16.92,23.13-4.49,51.02-5.7,73.61-1.42,20.47,5.31,40.14,13.99,61.82,16.71,13,1.81,30.21,1.27,42.91-6.88,15.02-9.11,23.52-27.41,20.6-44.6Zm-47.79,20.75c-21.65-4.31-42.49-15.32-64.32-21.23-34.44-7.57-67.36-6.78-101.95,1.09-17.94,4.7-32.38,12.21-45.17,17.07-7.9,2.89-15.83,5.67-23.91,5.67-5.58,0-1.72-12.09.72-19.33,1-2.5,2.05-4.95,3.17-7.33,3.05-1.81,6.97-3.56,10.37-5.01,28.8-11.79,61.09-17.25,92.69-20.47l-.03-3.02c-29.82-.66-60.82-.03-90.01,6.57,44.6-59.86,134.79-63.96,196.84-22.71,9.98,6.75,19.48,14.44,27.62,23.31-21.59-5.82-44.45-7.24-66.61-7.57l-.24,3.02c25.87,4.31,52.14,10.92,75.11,23.67,2.74,1.57,5.88,3.47,8.29,5.4,8.08,19.03-2.05,25.24-22.59,20.87Z" fill="#3a3736"/><path d="m659.62,791.64c-21.65-4.31-42.49-15.32-64.32-21.23-34.44-7.57-67.36-6.78-101.95,1.09-17.94,4.7-32.38,12.21-45.17,17.07-7.9,2.89-15.83,5.67-23.91,5.67-5.58,0-1.72-12.09.72-19.33,1-2.5,2.05-4.95,3.17-7.33,3.05-1.81,6.97-3.56,10.37-5.01,28.8-11.79,61.09-17.25,92.69-20.47l-.03-3.02c-29.82-.66-60.82-.03-90.01,6.57,44.6-59.86,134.79-63.96,196.84-22.71,9.98,6.75,19.48,14.44,27.62,23.31-21.59-5.82-44.45-7.24-66.61-7.57l-.24,3.02c25.87,4.31,52.14,10.92,75.11,23.67,2.74,1.57,5.88,3.47,8.29,5.4,8.08,19.03-2.05,25.24-22.59,20.87Z" fill="#fff"/></svg>