<?xml version="1.0" encoding="UTF-8"?><svg id="Layer_1" xmlns="http://www.w3.org/2000/svg" viewBox="0 0 1080 1080"><path d="m824.65,184.59c-86.6-65.46-216.96-98.9-324.18-91.13-50.51,3.68-99.66,19.72-143.98,44.93-22.43,12.79-43.6,27.95-63.26,44.93-57.69,49.78-103.4,113.83-133.19,184.96-48.49,115.76-54.97,251.94-4.31,367.85,56.96,130.23,184.63,217.32,318.91,241.95,254.2,46.71,485.33-188.67,496.91-442.33,6.15-134.58-38.93-269.58-146.88-351.17Zm122.18,356.42c-.84,9.41-1.96,18.82-3.38,28.16-42.73,282.51-352.35,470.67-604.92,330-102.52-57.08-181.07-163.55-193.62-284.56-1.93-18.7-2.41-37.57-1.54-56.45,4.25-91.49,40.07-182.88,93.57-254.47,75.93-101.5,191.75-166.12,316.01-171.55,136.21-5.94,280.46,73.7,349.64,195.76,36.12,63.72,50.66,139.67,44.24,213.1Z" fill="#f4cb56"/><path d="m946.83,541.01c-.84,9.41-1.96,18.82-3.38,28.16-42.73,282.51-352.35,470.67-604.92,330-102.52-57.08-181.07-163.55-193.62-284.56-1.93-18.7-2.41-37.57-1.54-56.45,4.25-91.49,40.07-182.88,93.57-254.47,75.93-101.5,191.75-166.12,316.01-171.55,136.21-5.94,280.46,73.7,349.64,195.76,36.12,63.72,50.66,139.67,44.24,213.1Z" fill="#ffe576"/><path d="m411.08,355.05c1.17.17,2.36.27,3.53.27,35.05.03,68.05-14.27,90.57-39.22,4.11-4.55,3.88-11.9-.5-16.05l-.38-.36c-3.8-3.6-9.65-3.44-13.61.37-18.72,18.06-44.65,27.07-73.01,25.36-5.25-.31-21.22-1.27-23.5,10.5-.92,4.76.81,10.04,4.41,13.45,3.05,2.89,7.71,4.97,12.49,5.67Z" fill="#3a3736"/><path d="m714.59,357.74c1.17.08,2.35.07,3.54-.02,4.82-.37,9.6-2.12,12.85-4.8,3.83-3.15,5.91-8.3,5.32-13.12-1.45-11.9-17.46-12.06-22.71-12.1-28.41-.26-53.65-11.04-71.07-30.35-3.68-4.08-9.52-4.65-13.56-1.32l-.41.34c-4.66,3.83-5.39,11.15-1.6,15.97,20.73,26.45,52.67,42.99,87.64,45.4Z" fill="#3a3736"/><path d="m302.65,575.43c-.88-1.04-.67-.61,0,0h0Z" fill="#f4cb56"/><path d="m303.8,480.58l-.24-1.33c-5.28-27.44-12.88-54.97-22.58-81.81-.93-2.62-2.62-5.04-4.74-6.78-2.14-1.75-4.73-2.86-7.51-2.86-1.06,0-2.17.18-3.29.54-1.99.63-3.92,1.84-5.58,3.44l-.6.45c-2.86,1.66-4.91,4.25-5.97,7.57-2.62,8.44-5.28,16.89-7.9,25.33-5.28,16.89-10.58,33.77-15.77,50.66-9.77,31.81-7.36,54.76,7.36,70.17,14.84,15.53,40.86,15.8,58.02.63,18.39-16.22,13.06-43.84,8.8-66.01Zm-17.76,35.22c-.66,6.57-3.08,11.64-7.18,15.14l.12.18c-4.01,2.74-8.78,4.22-13.27,4.22-.6,0-1.18,0-1.75-.06-5.13-.45-9.32-2.74-12.42-6.81-8.89-11.55-5.73-32.93-5.01-37.12,1.51-8.74,4.46-17.13,7.33-25.24,1.39-4.01,2.87-8.17,4.1-12.27l1.96-6.3c1.87-6.09,4.4-14.29,5.1-16.77l3.02-10.61,2.8,10.67c2.38,9.05,4.34,16.98,5.97,24.27,2.62,11.67,4.95,23.67,6.94,35.61l.48,2.74c1.15,6.6,2.56,14.81,1.81,22.34Z" fill="#77bbe6"/><path d="m286.04,515.8c-.66,6.57-3.08,11.64-7.18,15.14l.12.18c-4.01,2.74-8.78,4.22-13.27,4.22-.6,0-1.18,0-1.75-.06-5.13-.45-9.32-2.74-12.42-6.81-8.89-11.55-5.73-32.93-5.01-37.12,1.51-8.74,4.46-17.13,7.33-25.24,1.39-4.01,2.87-8.17,4.1-12.27l1.96-6.3c1.87-6.09,4.4-14.29,5.1-16.77l3.02-10.61,2.8,10.67c2.38,9.05,4.34,16.98,5.97,24.27,2.62,11.67,4.95,23.67,6.94,35.61l.48,2.74c1.15,6.6,2.56,14.81,1.81,22.34Z" fill="#97e7ff"/><path d="m723.47,723.89l-.03-.03c-.42-1.36-1.27-3.08-2.2-4.67-19.69-33.23-53.76-76.68-104.21-95.02-16.73-5.55-34.31-8.17-51.98-8.17-61.76,0-124.38,32.23-154.24,84.34-4.82,8.41-8.5,18.21-10.83,24.82-2.41,7.87.12,16.31,6.66,21.92,6.66,5.73,15.53,7,23.13,3.35l19.78-8.11c4.89-1.99,10.61-3.83,16.16-5.64,3.14-1,6.18-1.96,8.95-2.93,42.13-11.61,82.56-15.56,120.31-11.79,34.07,3.32,66.55,11.97,96.52,25.75.75.36,2.96,1.33,3.65,1.63,8.9,4.1,17.37.72,22.34-3.77,4.94-4.49,9.11-12.51,5.97-21.68Zm-40.07-8.41c-78.76-33.17-167.17-31.69-248.89,4.13l-7.36,3.23,3.44-7.27c29.25-62.15,113.14-95.71,179.48-71.8,28.92,11.31,54.82,33.92,77.01,67.24l5.55,8.35-9.23-3.89Z" fill="#3a3736"/><path d="m692.62,719.37l-9.23-3.89c-78.76-33.17-167.17-31.69-248.89,4.13l-7.36,3.23,3.44-7.27c29.25-62.15,113.14-95.71,179.48-71.8,28.92,11.31,54.82,33.92,77.01,67.24l5.55,8.35Z" fill="#ed7e7e"/><path d="m497.12,391.39c-19.96-15.08-49.96-22.77-74.63-20.99-11.64.84-22.95,4.52-33.17,10.34-5.16,2.96-10.04,6.42-14.56,10.34-13.27,11.46-23.79,26.2-30.67,42.58-11.16,26.66-12.63,58.02-.96,84.67,13.09,30,42.49,50.06,73.39,55.72,58.53,10.73,111.75-43.45,114.41-101.83,1.42-31-8.96-62.06-33.8-80.84Zm14.93,81.72c-.15,1.87-.36,3.71-.66,5.55-8.41,55.63-69.38,92.72-119.14,65.01-20.2-11.25-35.67-32.23-38.14-56.06-.36-3.68-.45-7.42-.3-11.13.84-18,7.9-36.03,18.42-50.12,14.96-19.99,37.78-32.72,62.27-33.8,26.81-1.15,55.24,14.53,68.87,38.57,7.09,12.54,9.95,27.5,8.68,41.97Z" fill="#3a3736"/><path d="m512.04,473.11c-.15,1.87-.36,3.71-.66,5.55-8.41,55.63-69.38,92.72-119.14,65.01-20.2-11.25-35.67-32.23-38.14-56.06-.36-3.68-.45-7.42-.3-11.13.84-18,7.9-36.03,18.42-50.12,14.96-19.99,37.78-32.72,62.27-33.8,26.81-1.15,55.24,14.53,68.87,38.57,7.09,12.54,9.95,27.5,8.68,41.97Z" fill="#fff"/><path d="m764.7,391.39c-19.93-15.08-49.94-22.77-74.63-20.99-11.61.84-22.95,4.52-33.14,10.34-5.16,2.96-10.04,6.42-14.56,10.34-13.27,11.46-23.79,26.2-30.67,42.58-11.16,26.66-12.66,58.02-.99,84.67,13.12,30,42.52,50.06,73.42,55.72,58.53,10.73,111.72-43.45,114.41-101.83,1.42-31-8.99-62.06-33.83-80.84Zm14.96,81.72c-.15,1.87-.39,3.71-.66,5.55-8.41,55.63-69.38,92.72-119.14,65.01-20.2-11.25-35.67-32.23-38.14-56.06-.39-3.68-.48-7.42-.3-11.13.84-18,7.9-36.03,18.42-50.12,14.96-19.99,37.78-32.72,62.24-33.8,26.84-1.15,55.24,14.53,68.87,38.57,7.12,12.54,9.98,27.5,8.71,41.97Z" fill="#3a3736"/><path d="m779.66,473.11c-.15,1.87-.39,3.71-.66,5.55-8.41,55.63-69.38,92.72-119.14,65.01-20.2-11.25-35.67-32.23-38.14-56.06-.39-3.68-.48-7.42-.3-11.13.84-18,7.9-36.03,18.42-50.12,14.96-19.99,37.78-32.72,62.24-33.8,26.84-1.15,55.24,14.53,68.87,38.57,7.12,12.54,9.98,27.5,8.71,41.97Z" fill="#fff"/><path d="m466.74,515.51c7.96-12.53,8.86-28.3,2.99-41.77-5.39-12.38-18.64-21.45-32.34-20.56-21.07,1.37-34.28,24.68-37.13,42.96-.09.57-.19,1.13-.26,1.69-1,8.1.86,17.04,5.6,23.76,5.77,8.18,13.94,12.42,23.76,13.55,15.09,1.73,29.5-7.23,37.38-19.64Zm-32.43-23.28s.01,0,.02,0c0,.02,0,.02-.01.04,0-.01,0-.03,0-.04Zm.4-1.24c-.02.08-.05.15-.07.22,0,.01-.01.02-.02.03-.04-.17,0-.61.27-1.35,0,.08,0,.16,0,.23-.05.3-.1.6-.17.86Z" fill="#3a3736"/><path d="m687.34,458.05c-18.79,12.9-32.43,42.77-17.78,63.55,5.77,8.18,13.94,12.42,23.76,13.55,15.09,1.73,29.5-7.23,37.38-19.64,7.96-12.53,8.86-28.3,2.99-41.77-7.57-17.37-29.74-27.09-46.35-15.69Zm10.93,34.18s.01,0,.02,0c0,.02,0,.02-.01.04,0-.01,0-.03,0-.04Zm.4-1.24c-.02.08-.05.15-.07.22,0,.01-.01.02-.02.03-.04-.17.01-.61.27-1.35,0,.08,0,.16,0,.23-.06.3-.1.6-.18.86Z" fill="#3a3736"/></svg>