<?xml version="1.0" encoding="UTF-8"?><svg id="Layer_1" xmlns="http://www.w3.org/2000/svg" viewBox="0 0 1080 1080"><path d="m975.88,547.32c-1.99-125.5-44.9-233.03-124.08-311.01-71.77-70.62-169.22-113.83-267.41-118.54-141.93-6.75-277.99,41.52-363.99,129.18-83.5,85.12-128.97,206.22-124.72,332.21,3.71,109.61,46.44,257.57,155.23,344.12,72.97,58.05,172,91.34,271.72,91.34,22.56,0,44.99-1.75,66.67-5.19,220.34-34.92,390.13-237.91,386.57-462.11Zm-33.23,64.35c-17.58,127.19-90.52,241.23-200.1,312.88-13.69,8.93-28.29,17.07-43.36,24.12-110.51,51.68-237.55,48.58-348.49-8.5-55.66-28.62-105.15-70.11-143.14-119.95-40.14-52.62-66.58-112.32-78.61-177.4-21.2-114.58,5.76-228.63,75.93-321.17,70.08-92.42,176.49-151.43,291.95-161.9,1.93-.18,3.86-.33,5.82-.48,18.6-1.42,39.71-2.59,62.18-2.59,54.31,0,116.33,6.91,168.83,34.07,46.47,24.09,89.32,61.18,123.9,107.32,67.91,90.64,99.72,207.85,85.09,313.6Z" fill="#f4cb56"/><path d="m942.65,611.67c-17.58,127.19-90.52,241.23-200.1,312.88-13.69,8.93-28.29,17.07-43.36,24.12-110.51,51.68-237.55,48.58-348.49-8.5-55.66-28.62-105.15-70.11-143.14-119.95-40.14-52.62-66.58-112.32-78.61-177.4-21.2-114.58,5.76-228.63,75.93-321.17,70.08-92.42,176.49-151.43,291.95-161.9,1.93-.18,3.86-.33,5.82-.48,18.6-1.42,39.71-2.59,62.18-2.59,54.31,0,116.33,6.91,168.83,34.07,46.47,24.09,89.32,61.18,123.9,107.32,67.91,90.64,99.72,207.85,85.09,313.6Z" fill="#ffe576"/><path d="m744.39,405.63c-3.6,11.16-26.2,6.48-37.83,3.54-9.48-2.39-42.53-8.12-40.7-22.53,1.28-10.04,10.06-14.33,19.47-14.64,14.47-.48,31.94,1.54,44.85,8.42,8.16,4.35,17.47,15.08,14.21,25.21Z" fill="#3a3736"/><path d="m375.97,370.65c3.46-.23,6.94-.18,10.4.17,9.03.91,24,8.27,15.82,19.35-2.08,2.82-5.78,3.79-9.14,4.75-13.15,3.75-25.44,9.66-37.96,15.04-8.07,3.46-22.06,8.19-27.22-2.1-3.65-7.28,2.65-14.74,7.71-19.58,10.84-10.36,25.44-16.63,40.39-17.63Z" fill="#3a3736"/><path d="m394.23,639.39c-4.02-16.57-22.67-21.58-37.37-20.82-2.09.11-4.19.25-6.32.44-1.59-.2-3.17-.4-4.75-.6l-17.78-2.3c-6.15-.81-12.31-1.62-18.46-2.39-7.5-.94-16.28-1.4-24.64,2.25-13.03,5.7-21.65,18.74-29.02,31.99-4.98,8.93-6.59,16.43-5.08,23.6,1.72,8.16,7.48,13.94,12.01,17.35,12.51,9.42,28.92,12.24,40.48,12.94,1.97.12,3.95.18,5.93.18,12.24,0,24.6-2.28,36.07-6.69,13.87-5.32,25.98-13.29,35.03-23.03,3.74-4.03,5.88-7.86,6.42-11.48,3.3-4.59,5.27-9.99,5.47-15.3.11-.09.22-.19.32-.29,1.61-1.53,2.22-3.66,1.69-5.86Zm-61.99,1.23c.69,1.88,2.35,3.17,4.55,3.56,4.21.73,8.25,1.67,12.08,2.8-.44.27-.97.56-1.46.82-11.78,6.47-22.45,11.15-32.41,14.2-10.6-3.09-21.19-7.51-31.54-12.1l-.76-.33c-.15-.07-.31-.13-.46-.2,2.96-1.24,5.9-2.26,7.86-2.93.93-.32,1.74-.6,2.36-.83,11.26-4.17,22.92-7.56,34.73-10.07.12.03.24.06.36.09,1.55.37,3.07.8,4.58,1.28-.34,1.25-.32,2.56.11,3.73Zm-58.52,20.32c-1.3-1.1-2.02-2.14-2.16-3.1,2.87,1.99,6.22,3.39,9.21,4.63l1.56.65c2.27.96,4.56,1.93,6.87,2.88-5.79-.26-11.41-1.62-15.48-5.06Zm83.14-4.09c2.06-1.47,3.63-3.25,4.64-5.21,3.77,1.64,7.53,3.54,10.57,5.88-2.91,2.27-6.25,4.07-9.25,5.16-7.84,2.87-15.87,3.86-24.02,3.53,6.32-2.67,12.7-5.52,18.06-9.36Zm8.77-23.03c4.79.96,10,2.47,12.32,6.37,1.3,2.18,1.79,4.44,1.46,6.72-4.44-3.26-10.03-5.6-14.5-7.46l-1.04-.44c-1.82-.77-3.66-1.48-5.52-2.15-1.91-1.82-4.1-3.51-6.54-5.07,4.58.54,9.3,1.12,13.82,2.03Zm-74.57,53.69c-13.65-3.06-22.19-7.93-26.12-14.89-.67-1.19-1.12-2.42-1.39-3.67,4.52,4.62,11.09,7.56,19.51,8.76,11.31,1.6,22.39-.02,32.13-2.71,5.62,1.47,11.36,2.6,17.25,3.23,5.07.54,12.18.86,19.93-.1-18.66,10.54-40.91,13.97-61.32,9.38Z" fill="#ff929d"/><path d="m783.96,699.1c7.09-2.52,13.82-6.24,19.32-11.38,7.82-7.31,9.32-15.67,6.89-26.1-.61-2.62-1.52-5.02-2.63-7.25,2.26-1.89,3.14-5.2.23-7.6-15.76-13.04-35.58-18.16-55.71-19.06-5.43-.24-10.87-.18-16.3.02-13.79-3.75-29.07-6.18-39.74,3.39-4.01.8-7.93,1.98-11.7,3.68-1.83.83-3.6,1.82-5.29,2.94-3.42,1.11-6.76,2.44-9.95,4.24-6.84,3.85-14.05,10.01-15.26,18.2-1.36,9.2,7.21,17.02,13.48,22.56,7.46,6.6,16.49,11.31,25.9,14.46,14.9,4.99,31.38,6.92,47.03,7.49,13.11.48,27.27-.68,39.89-4.36,1.28-.37,2.56-.78,3.82-1.23Zm-31.57-8.45c-11.52.43-23.11.52-34.57-.82-9.88-1.16-19.85-3.53-28.97-7.6-3.73-1.67-7.79-3.73-11.59-6.18-2.19-2.74-3.6-6-3.76-9.94-.25-6.27,3.29-12.17,7.91-16.38-.59,2.59-.71,5.3-.09,8.04,1.87,8.26,9.3,14.3,17.24,16.4,3.13.83,6.3,1.05,9.48.95.64.3,1.27.6,1.92.87,9.54,3.94,20.27,5.43,30.54,4.51,10.8-.96,20.19-4.93,30.2-8.73,4.39-1.67,8.95-3.25,13.65-3.75.58-.06,1.17-.06,1.76-.09.37,2.67.12,5.47-1,8.31-2.52,6.39-7.98,10.93-14.14,13.66-6.21.59-12.56.54-18.6.76Zm-44.03-27.75c-5.66-3.64-10.8-10.98-8.83-17.85,2.62-.2,5.24-.32,7.85-.4,11.04-.32,22.1-.26,33.15-.36,4.17-.04,8.36-.14,12.55-.18,2.45.69,4.97,1.38,7.48,2.13.3.61.32,1.37-.21,2.4-1.95,3.8-8.06,4.65-11.74,5.65-5.2,1.41-10.4,2.82-15.6,4.22-6.93,1.88-14.86,4.95-22.5,5.64-.72-.4-1.44-.8-2.15-1.25Zm37.96,3.37c5.15-1.39,10.63-2.45,15.44-4.85,4.42-2.21,8.22-6.36,9.58-11.05,2.57,1.28,5.01,2.78,7.19,4.67.97.84,1.84,1.75,2.66,2.69-6.73,1.17-13.38,3.43-17.93,5.26-9.33,3.75-19.53,6.55-29.6,6.71,4.22-1.14,8.43-2.28,12.65-3.43Zm47.89-8.93c-1.45-2.89-3.26-5.43-5.38-7.65,1.32.78,2.59,1.65,3.75,2.68,1.84,1.64,3.31,3.57,4.48,5.66-.91-.29-1.86-.52-2.85-.68Z" fill="#ff929d"/><path d="m612.78,628.28c1.52-9.33-2.64-18.46-10.96-15.53-5.94,2.1-7.82,11.53-10.97,17.54-24.77,47.34-81.73,60.93-117.99,26.45-5.33-5.07-9.95-11.35-13.43-18.64-1.82-3.82-3.25-7.87-4.48-12.06-1.26-4.29-2.11-9.95-5.23-12.73-3.09-2.76-9.52-2.45-12.25.98-5.21,6.55-.79,21.23,1.1,28.58,8.15,31.6,30.16,51.32,53.9,59.86,4.45,1.12,10.79,3.51,15.23,4,3.02.47,9.54,1.45,12.48,1.88,22.49,0,44.79-8.66,62.91-26.22,7.98-7.63,14.79-17.24,20.2-27.98,2.49-4.94,7.91-16.4,9.5-26.13Z" fill="#3a3736"/><path d="m458.55,525.16c-.99-.91-1.93-1.78-2.76-2.6-7.32-7.32-14.81-13.66-22.26-18.85-16.18-11.29-33.41-17.81-51.26-19.4-29.37-2.62-60.22,16.41-84.64,52.21-3.05,4.47-4.46,10.47-3.89,16.46.59,6.19,3.22,11.76,7.2,15.28l.32.28c2.16,1.9,4.55,3.04,6.98,3.45,5.71.97,11.67-2.02,15.43-8.45,11.57-19.77,31.08-43.49,58.31-44.26,13.38-.57,27.72,3.59,42.61,12.39,6.6,3.9,13.28,8.71,19.84,14.31.76.65,1.65,1.48,2.62,2.38,2.7,2.52,6.06,5.65,9.4,7.55,3.25,1.85,6.42,2.03,8.91.51,2.2-1.34,3.77-3.94,4.57-7.52,2.44-11.02-5.55-18.37-11.39-23.74Z" fill="#3a3736"/><path d="m770.1,534.35c-13.43-19.26-35.84-43.39-66.3-48.94-29.13-5.31-54.83,8.16-71.27,20.4-8.93,6.65-17.67,14.83-26.74,25.01-.56.63-1.17,1.27-1.8,1.91-1.58,1.64-3.22,3.34-4.54,5.42h0c-1.45,2.28-2.24,4.61-2.41,7.1-.39,5.39,2.28,11.95,6.86,13.11,4.26,1.08,8.55-1.51,12.19-4.19.16-.11.31-.24.46-.37l.37-.31c18.01-17.67,53.5-45.05,88.83-29.89,14.42,6.61,27.11,19.24,38.8,38.63,3.83,6.36,9.82,9.24,15.53,8.15,2.43-.47,4.81-1.66,6.94-3.61l.45-.41c3.84-3.51,6.34-9.01,6.86-15.1.52-6.15-1.01-12.31-4.22-16.91Z" fill="#3a3736"/></svg>