<?xml version="1.0" encoding="UTF-8"?><svg id="Layer_1" xmlns="http://www.w3.org/2000/svg" viewBox="0 0 926.54 1080"><path d="m270.11,870.97c-10-.74-20.74-1.33-28.69,6.07-4.23,3.94-5.89,10.1-3.49,15.35,2.86,6.26,10.12,7.9,16.59,8.95,46.57,7.55,93.84,10.69,141,9.4,13.74-.38,42.71-1.94,38.63,11.18-3.98,12.83.26,22.96,6.1,30.06,6.88,8.37,18.67,10.84,28.54,6.37l29.78-13.49c15.86-4.8,39.75-1.94,56.16.34,121.54,16.89,133.41-30.4,175.91-42.28,7.96-2.23,17.17-6.18,17.6-15.02.2-4.18-1.85-8.1-5.05-10.79-6.52-5.47-14.92-5.73-22.95-5.89-135.35-2.64-245.05,1.43-380.07,11.19-22.89,1.66-48.57,2.61-65.71-12.66" fill="#dbdbdb"/><path d="m728.58,800.36c-1.51,22.49-8.2,44.45-20.99,62.65-8.33,11.86-19.01,22.05-31.16,29.93-14.06,9.1-26.47,11.93-42.44,14.68-27.7,4.77-54.75-1.34-82.42-2.31-23.81-.84-52.04,1.43-72.97,13.8-3.04,1.8-10.29,8.11-12.8,3.47-1.43-2.64,5.84-14.04,7.22-16.51,5.97-10.73,13.81-20.42,23.1-28.46,3.23-2.79,6.84-5.73,7.71-9.91.79-3.84-.93-8.09.78-11.61,3.37-6.91,18.25-9.79,24.8-11.91,11.28-3.64,22.9-6.25,34.65-7.81,43.57-5.78,89.31,2.61,125.17,28.88,2.21-6.12-.63-12.91-4.33-18.26-10.81-15.58-28.86-24.9-47.35-29.09-18.49-4.19-37.66-3.8-56.61-3.57-2.97.03-6.5-.24-7.99-2.8-.77-1.34-.76-2.98-.67-4.52,1.16-19.84,7.73-39.33,18.01-56.28,10.7-17.66,24.7-29.53,41.56-40.89.91-.61,1.8-1.27,2.64-1.99,2.65-2.29,4.6-5.68,4.26-9.17-.33-3.48-3.52-6.72-7-6.31-1.41.16-2.69.86-3.92,1.57-37.96,21.84-60.4,63.1-65.64,105.81-.48,3.97-.82,7.95-.99,11.94-.07,1.52-.19,3.21-1.29,4.25-.89.85-2.19,1.05-3.41,1.22-22.41,3.14-44.14,11.06-63.33,23.06-7.78,4.87-16.08,12.88-13.51,21.69,2.07,7.13-.18,7.78-4.1,13.37-3.82,5.46-10.13,4.91-14.24-.52-11.01-14.54-4.92-30.52,3.65-40.93,7.58-9.2,18.15-11.67,28.53-14.78,6.34-1.9,13.22-2.68,19.38-4.61,7.48-2.34,2.78-8.43-1.09-11.83-5.26-4.62-8.15-1.71-15.22-3.53-10.98-2.82-10.12-83.3-7.43-123.23.69-10.21,3.28-20.37,2.93-30.64-.55-16.11-11.64-4.18-13.56,5.21-7.95,38.98-5.31,81.66-2.05,121.03.74,9.35,4.72,32.78,1.57,34.07-6.83,2.8-13.15,6.95-18.29,12.26-2.61,2.69-4.92,5.7-6.75,8.98-1.1,1.95-1.78,7.28-4.1,8-3.06.96-6.4.02-9.22-1.22-16.49-7.28-31.02-18.29-41.33-33.19-11.86-17.14-18.5-37.3-22.98-57.5-2.92-13.18-4.23-26.64-5.65-40.05-1.06-9.99.15-29.83-9.85-35.91-5.72-3.47-7.34,4.83-7.51,8.97-1.01,25.3,3.28,50.59,10.77,74.71,6.89,22.15,15.56,44.78,29.56,63.48,2.33,3.1,4.82,6.1,7.47,8.93,1.06,1.13,2.07,2.1,2.28,3.7,3.41,25.97-21.56,45.21-44.75,49.14-15.19,2.58-31.63.53-46.89-.73-8.63-.72-32.29-1.87-32.6-13.89-.72-28.74,22.3-58.45,52.69-57.41.46.02.93.04,1.36-.13,1.06-.41,1.38-1.87.94-2.93-1.09-2.66-5.81-5.31-8.63-4.73-2.88.6-4.1-1.25-4.39-4.06-4.86-47.4-9.6-94.2-10.36-141.84-.29-18.16-.53-36.33-.44-54.49.01-1.4.88-11.34,1.25-18.33,1.34.78,2.66,1.59,3.96,2.43.49.32.99.63,1.49.94,10.03,6.2,20.81,9.91,32.06,13.59,12.26,4,25.08,7,38.06,6.04.62-.05,1.28-.12,1.73-.54,3.91-3.65-8.53-7.66-10.64-8.36-9.52-3.19-19.33-5.64-28.48-9.86-29.49-13.6-57.67-33.53-83.82-52.54-11.64-8.46-23.19-17.3-33.43-27.44-3.74-3.7-7.43-7.6-10.36-11.99-4.2-6.29-12.08-13.53-10.91-21.87.62-4.45,4.33-8.21,6.49-12.13,5.54-10.02,7.29-20.26,9.12-31.37,2.22-13.55,5.81-26.84,10.36-39.78,3.08-8.78,6.26-17.55,10.22-25.99,2.02-4.3,4.23-8.52,6.75-12.56,3.27-5.26,7.89-12.85,15.49-10.14,1.09.39,2.01,1.14,3.02,1.7,7.02,3.86,11.65-2.04,9.13-8.66-6.41-16.78-15.29-32.39-20.25-49.73-1-3.49-1.88-7.01-2.56-10.56-2.62-13.59-5.92-72.63,22.69-58.53,6.76,3.33,12.29,8.53,18.27,13.02,6.44,4.85,13.84,8.52,21.03,12.14,7.17,3.63,15.3,8.54,23.59,8.5,7.02-.03,10.7-9.65,1.61-13.13-1.04-.39-2.17-.49-3.16-.99-.98-.5-1.82-1.61-1.48-2.67.29-.89,1.27-1.34,2.14-1.68,20.21-7.88,40.33-16.94,61.79-20.91,14.21-2.64,28.7-3.75,43.14-3.37,5.94.16,32.78-1.05,34.85,6.36,1.07,3.85-6.43,7.48-8.75,8.86-8.61,5.09-.26,20.19,11.03,13.58,13.22-7.73,22.42-11.63,33.16-22.62,4.92-5.04,8.93-9.91,12.41-16.08,3.57-6.3,10.55-17.82,16.15-22.61,5.35-4.58,11.58-5.11,16.22.57,10.94,13.39,14.05,33.83,16.04,50.49,1.58,13.14,2.27,26.5,1,39.7-.65,6.72-1.82,13.41-3.76,19.89-1.73,5.75-5.7,11.99-1.1,17.51.92,1.1,2.13,2.02,3.54,2.24,1.88.27,3.71-.73,5.18-1.93,1.48-1.18,2.81-2.61,4.52-3.42,6.97-3.28,15.63,8.64,19.8,12.74,8.52,8.37,16.5,17.29,25.22,25.47,4.42,4.14,9.02,8.1,13.93,11.65,4.6,3.32,9.72,5.65,12.21,11.08,3.98,8.7,2.25,19.11-.05,28.02-1.88,7.32-3.84,14.62-6.65,21.66-5.96,15-13.98,29.2-22.39,42.95-5.1,8.34-10.39,16.59-16.05,24.57-31.8,44.78-75.39,79.69-127.79,97.22-3.25,1.08-6.63,2.17-9.11,4.54-2.47,2.36-3.69,6.43-1.77,9.26,2.24,3.3,7.08,3.17,11,2.5,34.16-5.79,65.01-24.44,91.04-47.29,1.88-1.65,3.74-3.32,5.58-5.02,15.75,17.74,71.41,83.18,87.96,107.96,19.15,28.67,34.04,60.89,46.9,92.81,8.28,20.56,12.13,43.98,10.6,66.86Z" fill="#fff"/><path d="m502.85,467.65c-.64-1.82-1.93-3.92-3.84-3.7-1.92.21-2.71,2.54-3.1,4.43-2,9.78-5.22,19.82-12.45,26.69-8.29,7.88-21.44,10.17-31.91,5.54-1.51-.67-3.19-1.84-3.06-3.49.06-.82.58-1.52,1.07-2.18,3.82-5.11,7.36-10.42,10.6-15.91,3.83-6.5,7.28-13.38,8.54-20.81,1.25-7.44.08-15.56-4.59-21.49-4.55-5.77-11.89-8.81-19.19-9.62-10.74-1.19-21.77,2.07-30.59,8.3-5.17,3.65-9.82,8.62-11.19,14.79-2.01,9.11,3.51,18.15,9.74,25.09,5.7,6.36,14.48,15,20.98,20.53.72.61,1.47,1.27,1.73,2.17.27.91-.02,1.89-.36,2.78-2.49,6.58-10.35,9.24-16.43,11.34-6.91,2.4-14.9,1.92-21.27-1.78-2.18-1.26-4.34-2.92-6.86-2.91-4.29.02-4.34,4.53-3.13,7.42,1.58,3.74,4.99,6.7,8.53,8.52,4.39,2.26,9.36,3.12,14.27,3.64.95.1,1.94.2,2.73.73.91.59,1.41,1.63,1.86,2.61,1.09,2.35,2.21,4.7,3.39,7.04,5.62,11.09,12.54,21.69,23.16,27.84,4.09,2.37,8.93,4,13.51,2.86,4.61-1.15,8.11-4.88,10.93-8.7,6.99-9.5,11.57-20.77,13.17-32.46.36-2.59.59-5.27,1.79-7.59,1.83-3.55,5.55-5.63,8.75-8.03,13-9.78,18.61-28.31,13.22-43.65Zm-35.04,58.42c-1.78,9.1-3.94,23.26-12.94,28.21-6.23,3.42-14.84-2.21-19.14-6.52-4.46-4.47-9.36-11.04-11.52-17.01-.71-1.96-1.77-4.46.44-5.91,1.03-.67,2.29-.84,3.49-1.11.56-.12,1.11-.27,1.65-.44,1.82-.56,3.55-1.36,5.15-2.38,1.07-.69,2.14-1.49,3.4-1.65,7.84-.95,4.29,24.7,13.5,22.01,5.25-1.54.45-15.14-.19-18.35-.74-3.7-.4-5.21,3.72-3.66,4.33,1.62,13.72.29,12.44,6.81Z" fill="#3a3736"/><path d="m467.81,526.07c-1.78,9.1-3.94,23.26-12.94,28.21-6.23,3.42-14.84-2.21-19.14-6.52-4.46-4.47-9.36-11.04-11.52-17.01-.71-1.96-1.77-4.46.44-5.91,1.03-.67,2.29-.84,3.49-1.11.56-.12,1.11-.27,1.65-.44,1.82-.56,3.55-1.36,5.15-2.38,1.07-.69,2.14-1.49,3.4-1.65,7.84-.95,4.29,24.7,13.5,22.01,5.25-1.54.45-15.14-.19-18.35-.74-3.7-.4-5.21,3.72-3.66,4.33,1.62,13.72.29,12.44,6.81Z" fill="#ffc7cf"/><path d="m364.65,459c-3.47-8.59-15.13-9.95-24.02-8.51-1.26.2-2.53.43-3.82.68-.98,0-1.95,0-2.92.01l-10.95.02c-3.79,0-7.58,0-11.38.02-4.62.03-9.99.4-14.84,2.95-7.57,3.97-12,11.56-15.66,19.17-2.47,5.13-2.98,9.26-1.62,12.99,1.55,4.25,5.41,6.94,8.38,8.44,8.19,4.16,18.34,4.51,25.42,4.07,1.21-.08,2.41-.18,3.62-.32,7.44-.86,14.82-2.96,21.52-6.12,8.1-3.83,14.97-8.95,19.87-14.8,2.02-2.42,3.09-4.62,3.19-6.6,1.72-2.69,2.59-5.72,2.38-8.58.06-.06.12-.12.18-.18.88-.93,1.12-2.12.66-3.26Zm-37.62,5.03c.54.96,1.62,1.53,2.99,1.58,2.6.1,5.12.31,7.52.65-.25.18-.56.37-.83.54-6.76,4.29-12.96,7.55-18.83,9.89-6.64-.91-13.35-2.53-19.93-4.25l-.49-.12c-.1-.02-.19-.05-.29-.07,1.72-.87,3.45-1.62,4.6-2.12.55-.24,1.02-.44,1.39-.61,6.59-3.03,13.47-5.66,20.49-7.84.08,0,.15.01.22.02.97.09,1.92.21,2.86.36-.13.69-.04,1.39.3,1.99Zm-34.32,15c-.86-.5-1.36-1-1.5-1.51,1.87.86,3.99,1.38,5.89,1.83l.99.24c1.44.36,2.89.71,4.36,1.06-3.54.27-7.04-.06-9.73-1.62Zm50.3-8.05c1.16-.93,2.01-2,2.5-3.12,2.39.61,4.8,1.36,6.79,2.4-1.63,1.42-3.55,2.62-5.3,3.42-4.59,2.09-9.41,3.18-14.39,3.58,3.67-1.88,7.38-3.85,10.4-6.29Zm3.91-12.95c2.97.18,6.23.61,7.89,2.54.93,1.08,1.37,2.25,1.3,3.49-2.9-1.43-6.45-2.29-9.28-2.97l-.66-.16c-1.15-.28-2.32-.53-3.49-.76-1.27-.84-2.71-1.59-4.29-2.25,2.82-.03,5.72-.05,8.53.11Zm-42.01,34c-8.49-.68-13.99-2.68-16.81-6.13-.48-.59-.83-1.21-1.07-1.87,3.04,2.15,7.21,3.27,12.41,3.31,6.98.06,13.61-1.59,19.37-3.71,3.51.39,7.07.59,10.69.51,3.11-.07,7.46-.4,12.11-1.46-10.69,6.96-24.01,10.36-36.7,9.35Z" fill="#ffc7cf"/><path d="m601.79,451.11c3.52-2.6,6.64-5.89,8.84-9.85,3.13-5.64,2.58-10.96-.49-16.96-.77-1.51-1.67-2.83-2.66-4.03.94-1.5.88-3.64-1.13-4.67-10.91-5.58-22.76-5.73-34.08-3.24-3.06.67-6.06,1.52-9.04,2.47-8.28-.21-17.16.61-21.5,8.05-2.09,1.09-4.07,2.4-5.89,4-.88.78-1.7,1.65-2.45,2.59-1.71,1.19-3.35,2.51-4.82,4.09-3.16,3.38-6.14,8.22-5.46,13.4.77,5.82,6.82,9.3,11.22,11.73,5.23,2.9,11.03,4.42,16.77,4.92,9.1.8,18.56-.5,27.35-2.51,7.36-1.68,15.03-4.52,21.42-8.66.65-.42,1.29-.86,1.92-1.33Zm-18.92-.4c-6.32,1.99-12.74,3.8-19.33,4.7-5.68.78-11.61.83-17.34-.27-2.35-.45-4.94-1.1-7.45-2.03-1.67-1.34-2.99-3.12-3.73-5.5-1.18-3.79-.19-7.92,1.68-11.18.1,1.67.48,3.34,1.28,4.92,2.4,4.76,7.53,7.32,12.28,7.41,1.88.03,3.67-.31,5.42-.85.4.08.81.18,1.21.24,5.95.97,12.15.26,17.7-1.84,5.84-2.21,10.39-6.05,15.32-9.87,2.16-1.68,4.43-3.33,6.96-4.34.31-.12.64-.22.96-.32.65,1.58.97,3.32.82,5.22-.34,4.28-2.62,7.87-5.59,10.46-3.35,1.3-6.88,2.22-10.2,3.26Zm-29.03-10.3c-3.74-1.37-7.81-5.08-7.85-9.56,1.42-.51,2.85-.99,4.29-1.43,6.07-1.86,12.23-3.49,18.34-5.21,2.31-.65,4.62-1.34,6.94-2,1.48.05,2.99.09,4.5.18.27.32.41.79.28,1.5-.46,2.62-3.71,4.05-5.58,5.21-2.65,1.64-5.31,3.28-7.96,4.92-3.54,2.19-7.43,5.25-11.56,6.83-.47-.14-.93-.27-1.4-.44Zm21.63-3.66c2.63-1.62,5.5-3.1,7.77-5.28,2.09-2.01,3.51-5.12,3.49-8.19,1.64.4,3.24.94,4.77,1.77.67.37,1.31.79,1.92,1.24-3.54,1.73-6.86,4.1-9.08,5.91-4.56,3.69-9.76,6.94-15.32,8.55,2.15-1.33,4.3-2.66,6.46-3.99Zm25.11-12.65c-1.28-1.54-2.71-2.82-4.25-3.86.86.28,1.71.61,2.52,1.07,1.29.73,2.43,1.68,3.42,2.78-.55-.04-1.12-.04-1.69.01Z" fill="#ffc7cf"/><path d="m517.69,568.45s54.75-11.91,38.96,54.58-59.91,49.8-22.14,116.89,21.99,77.24,21.99,77.24l3.27,9.98s-20.42,18.76-3.12,27.78,0,20.11,0,20.11c0,0-11.12,15.25,15.92,18.03s-2.77,19.41-2.77,19.41l53.39,4.16,45.07-13.17s106.49-18.92,48.95-195.87c0,0-98.93-179.17-136.86-188.92l-62.65,49.8Z" fill="#71767a"/><path d="m348.11,594.24s14.51,21.49-9.21,84.38-18.75,113.32-18.75,113.32l-7.05,4.09-8.14-80.84-5.24-146.75,48.39,25.79Z" fill="#71767a"/><path d="m310.9,876.99c-.12-.83.07-1.88-.5-2.51-6.43-7.17-6.61-20.5-2.68-27.95.62-1.16,1.3-2.31,1.62-3.59.51-2.06-.42-4.21-2.38-5.12-6.39-2.96-9.64,9.44-10.7,13.4-2.15,8.07-2.1,16.72.29,24.73.67,2.25,3.19,3.9,5.54,3.14,2.99-.97,9.14.24,8.81-2.11Z" fill="#454545"/><path d="m346.89,879.46c-.12-.83.07-1.88-.5-2.51-6.43-7.17-6.61-20.5-2.68-27.95.62-1.16,1.3-2.31,1.62-3.59.51-2.06-.42-4.21-2.38-5.12-6.39-2.96-9.64,9.44-10.7,13.4-2.15,8.07-2.1,16.72.29,24.73.67,2.25,3.19,3.9,5.54,3.14,2.99-.97,9.14.24,8.81-2.11Z" fill="#454545"/><path d="m408.67,871.27c-.08-.01-.15-.02-.16-.02h0c.05,0,.1,0,.15.02Z" fill="#454545"/><path d="m438.58,871.28c-.1.02-.24.04-.34.05.01-.01.02-.01.03-.01.1-.01.21-.03.31-.04Z" fill="#454545"/><path d="m438.67,871.27s-.06.01-.09.01c.03,0,.05-.01.08-.02h.01Z" fill="#454545"/><path d="m438.72,871.27h-.05.01s.03-.01.04,0Z" fill="#454545"/><path d="m684.89,846.99s-18.08-47.08-84.69-45.15c0,0-30.68-19.47,8.55-73.92,0,0-39.48,20.36-40.89,92.26,0,0,70.43-15.88,117.02,26.81Z" fill="#5a6063"/><path d="m478.02,805.52s-88.68,13.53-109.3-117.27l-4,23.89s5.98,113.03,87.14,129.96c0,0,16.35-37.08,26.17-36.59Z" fill="#ede2e4"/><path d="m493.49,819.05s20.41-7.8,44.06-7.58c0,0-1.65-13.06-17.76-20.25-9.81-4.38-17.26-12.81-19.92-23.21-5.35-20.98-11.49-60.08-7.81-122.8l-10.25,31.49,3.44,119.33,8.24,23.02Z" fill="#ede2e4"/><path d="m439.18,871.19c-.16.03-.33.05-.5.07.02,0,.03,0,.04.01h-.05s-.06.01-.09.01c.03,0,.05-.01.08-.02-.31,0-1.46.19-1.53.2-1.06.13-2.12.24-3.19.33-2.14.19-4.28.32-6.42.39-4.2.14-8.42.05-12.62-.27-.99-.07-1.98-.16-2.97-.26-.31-.03-3.21-.58-3.41-.41-.08-.01-.16-.02-.23-.03-.53-.08-1.06-.16-1.59-.25-1.06-.17-2.11-.35-3.16-.55-.21-.04-.42-.08-.63-.13,6.98-8.96,12.78-20.73,9.37-32.08-.3-1.02-1.06-2.49.35-3.09,1.31-.55,2.54.62,3.55,1.37,8.19,6.13,18.48,7.94,27.07,13.35,2.44,1.54,3.59,2.37,3.6,5.4.02,4.94.56,9.68,1.78,14.13-3.13.75-6.28,1.36-9.45,1.83Z" fill="#fff"/><path d="m282.97,541.9s-85.32-85.62,15.69-131.08c0,0-13.7-60.48,4.72-98.57,11.7-24.19,41.16-33.55,64.91-20.99,16.81,8.88,38.75,26.45,53.08,60.6,0,0,10.14-81.05,70.1-87.46.87-.09,1.74-.11,2.62-.05,9.73.66,62.2,8.43,59.74,99.22,0,0,96.43-10.91,72.56,103.22,0,0,46.39-64.26,42.22-120.89l-72.29-64.97-2.91-57.47-12.2-44.98-26.71-20.97-16.95,4.31-32.66,46.9-14.24-9.42-53-5.76-54.15,10.37-53.29,19.87-9.51,6.62-34.56-23.91-15.84-5.76-10.66,6.05-8.06,11.52-1.44,54.14,5.76,26.21,7.2,14.7-28.23,57.32-19.3,71.14-18.15,29.03,36,47.79,29.09,19.67,20.44,3.57Z" fill="#71767a"/><path d="m740.4,768.45c-8.09-69.64-70.22-166.8-116.11-218.15-7.12-7.97-21.2-21.92-28.78-29.74,20.99-21.83,38.66-46.84,52.34-73.86,8.7-17.21,15.8-35.24,21.12-53.78,2.75-9.56,5.03-19.27,6.8-29.06,1.32-7.29,6.49-19.7,4.41-26.84-1.89-6.48-14.27-5.68-19.51-8.7-10.98-6.32-21.1-14.55-29.05-24.44-13.29-16.53-26.61-29.14-29.06-51.13-3.63-32.54-3.51-81-37.36-98.8-8.54-4.48-16.62-8.6-25.88-1.76-8.41,6.22-14.16,15.39-20.12,23.81-2.84,4-5.69,8.7-9.37,12-4.03,3.62-10.11,4.31-15.42,4.08-5.97-.26-11.63-2.04-17.47-3.08-80.92-14.57-154.19,30.98-154.19,30.98-11.79-3.89-21.06-11.38-28.4-17.93-12.17-10.86-29.8-12.41-42.29-.68-18.92,22.94-11.03,62.92-2.92,88.69,7.23,22.97-12.06,44.31-20.08,64.75-6.46,16.46-11.21,34.36-16.26,51.61-4.95,16.93-4.67,35.35-15.15,49.86-3.57,4.95-11.44,9.95-10.01,17.09.65,3.25,2.97,5.86,5.23,8.28,24.23,25.97,50.15,50.64,79.02,71.45,7.37,5.31,14.94,10.34,22.7,15.05,1.01,36.63,4.37,165.21,7.31,192.51.86,7.93,3.55,16.22,1.61,23.69-1.6,6.2-4.58,12.7-9.52,16.96-5.25,4.54-11.66,7.93-16.32,13.12-4.05,4.5-6.9,10.34-8.91,16-4.24,12-5.01,25.52-2.05,37.91,4.21,17.63,25.17,16.91,39.74,18.7,12.1,1.49,24.47,2.77,36.67,2.77,12.65.32,25.73.08,37.91-3.72,4.16-1.3,8.07-3.31,11.62-5.85,15.04,3.98,30.91,5.02,46.31,3,4.95-.64,9.85-1.52,14.69-2.75,2.01,3.01,4.53,5.81,7.64,8.35,1.97,1.61,3.46,3.65,2.44,6.54-5.45,15.51-12.44,31.72-9.38,48.45.72,3.93,5.15,6.35,8.67,4.45,1.51-.81,2.71-2.06,4-3.17,21.03-18.1,54.65-18.99,80.97-18.63,27.69.39,55.06,5.61,82.85,3.65,41.22-2.91,73.24-24.34,91.97-61.3,15.74-31.05,21.34-68.14,17.59-100.38Zm-301.22,102.75c-.16.03-.33.05-.5.07.02,0,.03,0,.04.01h-.05s-.06.01-.09.01c-.1.02-.24.04-.34.05.01-.01.02-.01.03-.01.1-.01.21-.03.31-.04.03,0,.05-.01.08-.02-.31,0-1.46.19-1.53.2-1.06.13-2.12.24-3.19.33-2.14.19-4.28.32-6.42.39-4.2.14-8.42.05-12.62-.27-.99-.07-1.98-.16-2.97-.26-.31-.03-3.21-.58-3.41-.41.05.01.1.01.15.03-.08-.01-.15-.02-.16-.02h.01c-.08-.02-.16-.03-.23-.04-.53-.08-1.06-.16-1.59-.25-1.06-.17-2.11-.35-3.16-.55-.21-.04-.42-.08-.63-.13,6.98-8.96,12.78-20.73,9.37-32.08-.3-1.02-1.06-2.49.35-3.09,1.31-.55,2.54.62,3.55,1.37,8.19,6.13,18.48,7.94,27.07,13.35,2.44,1.54,3.59,2.37,3.6,5.4.02,4.94.56,9.68,1.78,14.13-3.13.75-6.28,1.36-9.45,1.83Zm289.4-70.84c-1.51,22.49-8.2,44.45-20.99,62.65-8.33,11.86-19.01,22.05-31.16,29.93-14.06,9.1-26.47,11.93-42.44,14.68-27.7,4.77-54.75-1.34-82.42-2.31-23.81-.84-52.04,1.43-72.97,13.8-3.04,1.8-10.29,8.11-12.8,3.47-1.43-2.64,5.84-14.04,7.22-16.51,5.97-10.73,13.81-20.42,23.1-28.46,3.23-2.79,6.84-5.73,7.71-9.91.79-3.84-.93-8.09.78-11.61,3.37-6.91,18.25-9.79,24.8-11.91,11.28-3.64,22.9-6.25,34.65-7.81,43.57-5.78,89.31,2.61,125.17,28.88,2.21-6.12-.63-12.91-4.33-18.26-10.81-15.58-28.86-24.9-47.35-29.09-18.49-4.19-37.66-3.8-56.61-3.57-2.97.03-6.5-.24-7.99-2.8-.77-1.34-.76-2.98-.67-4.52,1.16-19.84,7.73-39.33,18.01-56.28,10.7-17.66,24.7-29.53,41.56-40.89.91-.61,1.8-1.27,2.64-1.99,2.65-2.29,4.6-5.68,4.26-9.17-.33-3.48-3.52-6.72-7-6.31-1.41.16-2.69.86-3.92,1.57-37.96,21.84-60.4,63.1-65.64,105.81-.48,3.97-.82,7.95-.99,11.94-.07,1.52-.19,3.21-1.29,4.25-.89.85-2.19,1.05-3.41,1.22-22.41,3.14-44.14,11.06-63.33,23.06-7.78,4.87-16.08,12.88-13.51,21.69,2.07,7.13-.18,7.78-4.1,13.37-3.82,5.46-10.13,4.91-14.24-.52-11.01-14.54-4.92-30.52,3.65-40.93,7.58-9.2,18.15-11.67,28.53-14.78,6.34-1.9,13.22-2.68,19.38-4.61,7.48-2.34,2.78-8.43-1.09-11.83-5.26-4.62-8.15-1.71-15.22-3.53-10.98-2.82-10.12-83.3-7.43-123.23.69-10.21,3.28-20.37,2.93-30.64-.55-16.11-11.64-4.18-13.56,5.21-7.95,38.98-5.31,81.66-2.05,121.03.74,9.35,4.72,32.78,1.57,34.07-6.83,2.8-13.15,6.95-18.29,12.26-2.61,2.69-4.92,5.7-6.75,8.98-1.1,1.95-1.78,7.28-4.1,8-3.06.96-6.4.02-9.22-1.22-16.49-7.28-31.02-18.29-41.33-33.19-11.86-17.14-18.5-37.3-22.98-57.5-2.92-13.18-4.23-26.64-5.65-40.05-1.06-9.99.15-29.83-9.85-35.91-5.72-3.47-7.34,4.83-7.51,8.97-1.01,25.3,3.28,50.59,10.77,74.71,6.89,22.15,15.56,44.78,29.56,63.48,2.33,3.1,4.82,6.1,7.47,8.93,1.06,1.13,2.07,2.1,2.28,3.7,3.41,25.97-21.56,45.21-44.75,49.14-15.19,2.58-31.63.53-46.89-.73-8.63-.72-32.29-1.87-32.6-13.89-.72-28.74,22.3-58.45,52.69-57.41.46.02.93.04,1.36-.13,1.06-.41,1.38-1.87.94-2.93-1.09-2.66-5.81-5.31-8.63-4.73-2.88.6-4.1-1.25-4.39-4.06-4.86-47.4-9.6-94.2-10.36-141.84-.29-18.16-.53-36.33-.44-54.49.01-1.4.88-11.34,1.25-18.33,1.34.78,2.66,1.59,3.96,2.43.49.32.99.63,1.49.94,10.03,6.2,20.81,9.91,32.06,13.59,12.26,4,25.08,7,38.06,6.04.62-.05,1.28-.12,1.73-.54,3.91-3.65-8.53-7.66-10.64-8.36-9.52-3.19-19.33-5.64-28.48-9.86-29.49-13.6-57.67-33.53-83.82-52.54-11.64-8.46-23.19-17.3-33.43-27.44-3.74-3.7-7.43-7.6-10.36-11.99-4.2-6.29-12.08-13.53-10.91-21.87.62-4.45,4.33-8.21,6.49-12.13,5.54-10.02,7.29-20.26,9.12-31.37,2.22-13.55,5.81-26.84,10.36-39.78,3.08-8.78,6.26-17.55,10.22-25.99,2.02-4.3,4.23-8.52,6.75-12.56,3.27-5.26,7.89-12.85,15.49-10.14,1.09.39,2.01,1.14,3.02,1.7,7.02,3.86,11.65-2.04,9.13-8.66-6.41-16.78-15.29-32.39-20.25-49.73-1-3.49-1.88-7.01-2.56-10.56-2.62-13.59-5.92-72.63,22.69-58.53,6.76,3.33,12.29,8.53,18.27,13.02,6.44,4.85,13.84,8.52,21.03,12.14,7.17,3.63,15.3,8.54,23.59,8.5,7.02-.03,10.7-9.65,1.61-13.13-1.04-.39-2.17-.49-3.16-.99-.98-.5-1.82-1.61-1.48-2.67.29-.89,1.27-1.34,2.14-1.68,20.21-7.88,40.33-16.94,61.79-20.91,14.21-2.64,28.7-3.75,43.14-3.37,5.94.16,32.78-1.05,34.85,6.36,1.07,3.85-6.43,7.48-8.75,8.86-8.61,5.09-.26,20.19,11.03,13.58,13.22-7.73,22.42-11.63,33.16-22.62,4.92-5.04,8.93-9.91,12.41-16.08,3.57-6.3,10.55-17.82,16.15-22.61,5.35-4.58,11.58-5.11,16.22.57,10.94,13.39,14.05,33.83,16.04,50.49,1.58,13.14,2.27,26.5,1,39.7-.65,6.72-1.82,13.41-3.76,19.89-1.73,5.75-5.7,11.99-1.1,17.51.92,1.1,2.13,2.02,3.54,2.24,1.88.27,3.71-.73,5.18-1.93,1.48-1.18,2.81-2.61,4.52-3.42,6.97-3.28,15.63,8.64,19.8,12.74,8.52,8.37,16.5,17.29,25.22,25.47,4.42,4.14,9.02,8.1,13.93,11.65,4.6,3.32,9.72,5.65,12.21,11.08,3.98,8.7,2.25,19.11-.05,28.02-1.88,7.32-3.84,14.62-6.65,21.66-5.96,15-13.98,29.2-22.39,42.95-5.1,8.34-10.39,16.59-16.05,24.57-31.8,44.78-75.39,79.69-127.79,97.22-3.25,1.08-6.63,2.17-9.11,4.54-2.47,2.36-3.69,6.43-1.77,9.26,2.24,3.3,7.08,3.17,11,2.5,34.16-5.79,65.01-24.44,91.04-47.29,1.88-1.65,3.74-3.32,5.58-5.02,15.75,17.74,71.41,83.18,87.96,107.96,19.15,28.67,34.04,60.89,46.9,92.81,8.28,20.56,12.13,43.98,10.6,66.86Z" fill="#454545"/><path d="m336.9,253.62s-35.91-11.85-53.36-24.89c-4.44-3.32-10.78-.73-11.69,4.73-2.3,13.76-1.95,38.42,15.91,72.78,0,0,11.24-46.27,49.15-52.62Z" fill="#fff"/><path d="m503.94,234.22s29.18-14.3,44.85-41.38c2.75-4.75,9.78-4.14,11.6,1.03,5.24,14.9,10.51,43.25.28,87.11,0,0-21.1-43.29-56.73-46.76Z" fill="#fff"/><path d="m515.21,304.99c-.87,6.59-13.95,6.29-20.73,5.84-5.53-.37-24.54-.18-24.99-8.41-.31-5.73,4.15-9.02,9.36-10.15,8.02-1.74,17.97-2.4,25.87.12,4.99,1.59,11.28,6.62,10.5,12.6Z" fill="#71767a"/><path d="m348.89,312.04c1.91-.48,3.85-.81,5.81-.97,5.13-.41,14.23,2.16,10.8,9.17-.87,1.78-2.83,2.7-4.61,3.58-6.95,3.43-13.2,7.99-19.63,12.26-4.15,2.76-11.46,6.82-15.39,1.61-2.78-3.69-.03-8.49,2.3-11.7,4.99-6.88,12.49-11.87,20.72-13.95Z" fill="#71767a"/><ellipse cx="367.66" cy="395.14" rx="18.22" ry="26.16" transform="translate(-43.09 45.01) rotate(-6.62)" fill="#3a3736"/><ellipse cx="498.65" cy="376.21" rx="18.22" ry="26.16" transform="translate(-40.04 59.98) rotate(-6.62)" fill="#3a3736"/></svg>