<svg width="24" height="24" viewBox="0 0 24 24" fill="none" xmlns="http://www.w3.org/2000/svg">
<rect width="24" height="24" fill="#EFEFEF"/>
<g id="on press of an emoji - without recording">
<rect width="430" height="932" transform="translate(-141 -232)" fill="white"/>
<g id="&#240;&#159;&#166;&#134; icon &#34;pencil&#34;">
<path id="Vector" d="M0.372177 22.6786L0.376585 22.6829C0.493478 22.7959 0.632494 22.8857 0.785639 22.9469C0.938785 23.0082 1.10304 23.0399 1.26896 23.04C1.40857 23.0399 1.54722 23.0178 1.67938 22.9746L8.87462 20.6314L22.6818 7.37634C23.5259 6.56595 24.0001 5.46686 24 4.32085C23.9999 3.17484 23.5257 2.07578 22.6815 1.26547C21.8374 0.455152 20.6925 -5.0168e-05 19.4988 4.14702e-09C18.305 5.01763e-05 17.1602 0.455349 16.3161 1.26574L2.50892 14.5208L0.0683174 21.4281C-0.00856171 21.6429 -0.020833 21.8741 0.0329105 22.0953C0.086654 22.3165 0.204237 22.5187 0.372177 22.6786ZM17.4627 2.36637C18.0034 1.85121 18.7348 1.56275 19.4966 1.56415C20.2584 1.56556 20.9886 1.85671 21.5273 2.37386C22.066 2.89101 22.3692 3.592 22.3707 4.32335C22.3721 5.0547 22.0716 5.75679 21.535 6.2759L19.7193 8.01895L15.6469 4.10942L17.4627 2.36637ZM3.92308 15.3645L14.5005 5.21005L18.5728 9.11958L7.99542 19.274L1.8324 21.281L3.92308 15.3645Z" fill="#83A5FF"/>
</g>
</g>
</svg>
