<?xml version="1.0" encoding="UTF-8"?><svg id="Layer_1" xmlns="http://www.w3.org/2000/svg" viewBox="0 0 1080 1080"><path d="m233.75,885.68c82.51,78.06,181.45,120.35,294.75,113.81,73.75-4.25,146.84-26.51,210.73-63.52,3.62-2.11,7.22-4.27,10.77-6.49,232.94-145.42,288.33-528.37,92.2-725.47C661.33,22.26,320.99,5.88,169.08,233.01c-123.44,184.54-98.46,498.34,64.67,652.67ZM394.78,105.8c112.25-29.13,255.53,4.35,352.54,65.78,22.24,14.09,43.22,30.21,62.54,48.12,72.38,67.04,113.5,168.6,119.69,257.6,2.76,39.7-.45,80.95-9.03,123.14-25.53,125.28-95.74,244.97-204.47,315.23-206.4,133.38-524.98-4.23-576.54-242.42-25.86-119.49-32.38-257.19,28.18-367.43,49.1-89.36,128.45-174.45,227.08-200.02Z" fill="#f3ca56"/><path d="m167.7,305.83c49.1-89.36,128.45-174.45,227.08-200.02,112.25-29.13,255.53,4.35,352.54,65.78,22.24,14.09,43.22,30.21,62.54,48.12,72.38,67.04,113.5,168.6,119.69,257.6,2.76,39.7-.45,80.95-9.03,123.14-25.53,125.28-95.74,244.97-204.47,315.23-206.4,133.38-524.98-4.23-576.54-242.42-25.86-119.49-32.38-257.19,28.18-367.43Z" fill="#ffe476"/><path d="m427.76,365.07c-60.3-11.05-118.69,25.89-128.14,82.09-.88,5.26-1.39,10.66-1.54,16.12-1,38.23,15.8,81.5,54.79,99.09,16.57,7.47,35.35,9.63,53.41,6.36,32.67-5.89,59.34-26.11,73.85-53.76,25.23-48.1,16.1-137.33-52.37-149.9Zm31.45,146.21c-12.37,18.54-33.99,30.82-56.62,35.09-3.32.63-6.69.96-10.04,1-16.5.23-32.96-6.29-45.26-16.73-40.08-34.08-27.49-116.02,21.43-138.61,33.11-15.29,79.11-.61,96.24,31.34,14.59,27.19,11.17,62.56-5.74,87.92Z" fill="#3a3736"/><path d="m459.21,511.28c-12.37,18.54-33.99,30.82-56.62,35.09-3.32.63-6.69.96-10.04,1-16.5.23-32.96-6.29-45.26-16.73-40.08-34.08-27.49-116.02,21.43-138.61,33.11-15.29,79.11-.61,96.24,31.34,14.59,27.19,11.17,62.56-5.74,87.92Z" fill="#fff"/><path d="m512.84,651.13c46.31-.94,92.85,3.08,137.25,9.09,18.62,2.52,44.52,8.31,47.58,30.66.3,2.18.2,4.72-1.48,6.13-1.86,1.55-4.63.95-6.95.27-80.19-23.18-165.53-26.59-247.51-11.22-27.57,5.08-54.69,12.87-80.33,24.26-3.88,1.72-7.92,3.55-12.16,3.3-8.66-.51-15.92-9.78-19.16-17.14-.43-.98-.82-2.03-.75-3.11.12-1.73,1.47-3.18,3.04-3.93,55.82-26.73,117.93-37.05,180.47-38.33Z" fill="#3a3736"/><path d="m435.4,481.89c-.59,14.78-11.86,33.71-31.49,35.59-12.77,1.22-24.5-7.32-29.05-17.41-5.15-11.43-3.56-24.76,2.8-35.56,5.21-8.86,15.87-18.75,28.1-18.31,18.95.68,30.33,18.62,29.65,35.69Z" fill="#3a3736"/><path d="m708.17,371.05c-60.3-11.07-118.69,25.88-128.14,82.08-.9,5.26-1.41,10.67-1.54,16.13-1,38.21,15.8,81.48,54.77,99.07,16.56,7.49,35.37,9.63,53.43,6.37,32.67-5.89,59.32-26.13,73.83-53.76,25.25-48.1,16.12-137.33-52.35-149.9Zm31.44,146.2c-12.35,18.54-33.98,30.82-56.6,35.11-3.32.61-6.69.95-10.04,1-16.51.22-32.98-6.29-45.26-16.75-40.08-34.06-27.5-116.02,21.43-138.59,33.11-15.29,79.11-.61,96.24,31.34,14.57,27.17,11.15,62.54-5.76,87.9Z" fill="#3a3736"/><path d="m739.6,517.24c-12.35,18.54-33.98,30.82-56.6,35.11-3.32.61-6.69.95-10.04,1-16.51.22-32.98-6.29-45.26-16.75-40.08-34.06-27.5-116.02,21.43-138.59,33.11-15.29,79.11-.61,96.24,31.34,14.57,27.17,11.15,62.54-5.76,87.9Z" fill="#fff"/><path d="m715.81,487.86c-.59,14.78-11.86,33.71-31.49,35.59-12.77,1.22-24.5-7.32-29.05-17.41-5.15-11.43-3.56-24.76,2.8-35.56,5.21-8.86,15.87-18.75,28.1-18.31,18.95.68,30.33,18.62,29.65,35.69Z" fill="#3a3736"/><path d="m738.71,304.33c-3.59,11.14-26.16,6.47-37.77,3.54-9.47-2.39-42.46-8.11-40.63-22.49,1.27-10.02,10.04-14.31,19.43-14.62,14.45-.48,31.89,1.53,44.78,8.41,8.14,4.34,17.45,15.06,14.19,25.16Z" fill="#3a3736"/><path d="m379.23,264.57c4.04-.26,8.11-.2,12.14.19,10.55,1.01,28.03,9.17,18.48,21.47-2.43,3.13-6.74,4.21-10.68,5.28-15.36,4.16-29.71,10.72-44.34,16.69-9.43,3.84-25.76,9.09-31.79-2.33-4.26-8.08,3.1-16.36,9.01-21.73,12.66-11.5,29.72-18.45,47.17-19.56Z" fill="#3a3736"/></svg>