<?xml version="1.0" encoding="UTF-8"?><svg id="Layer_1" xmlns="http://www.w3.org/2000/svg" viewBox="0 0 1080 1080"><path d="m981.19,538.9c-1.42-52.98-4.58-104.21-24.18-157.83-26.66-72.76-71.74-138.1-129.27-189.52-45.29-40.47-109.67-70.65-169.01-82.14-157.55-30.49-334.98,15.05-445.4,134.79-60.79,65.95-93.57,149.68-108.4,237.49-41.28,244.01,125.29,507.7,378.67,531.7,268.7,25.42,504.84-202.51,497.6-474.5Zm-82.08,231.61c-74.78,114.25-193.11,189.7-329.37,196.72-58.38,3.02-117.33-5.61-172.36-25.48-237.91-85.91-330.88-371.07-223.56-594.7,59.74-124.51,205.02-193.68,335.97-208.09,113.26-12.48,229.47,13.24,312.67,82.77,97.43,81.48,140.34,200.28,144.29,325.39,2.5,79.43-24.58,157.58-67.64,223.38Z" fill="#f4cb56"/><path d="m899.11,770.51c-74.78,114.25-193.11,189.7-329.37,196.72-58.38,3.02-117.33-5.61-172.36-25.48-237.91-85.91-330.88-371.07-223.56-594.7,59.74-124.51,205.02-193.68,335.97-208.09,113.26-12.48,229.47,13.24,312.67,82.77,97.43,81.48,140.34,200.28,144.29,325.39,2.5,79.43-24.58,157.58-67.64,223.38Z" fill="#ffe576"/><path d="m750.04,559.83c1.49-3.65,2.66-7.44,3.46-11.37.5-2.43.82-4.9.43-7.38-.59-3.8-3.73-6.68-7.4-7.51-4.51-1.02-7.51,1.28-10.19,4.67-18.7,23.6-44.39,49.23-77.57,43.24-10.15-1.83-18.04-8.06-24.26-16.04-7.75-9.95-10.75-23.54-21.66-30.88-8.81-5.92-19.75-5.98-19.05,7.26,1.43,26.78,17.88,48.32,42.39,58.52,24.21,10.07,53.76,10.06,77.21-2.06,15.82-8.18,29.84-21.82,36.63-38.45Z" fill="#3a3736"/><path d="m488.27,522.7c-2.84-21.16-18.42,7.1-22.61,16.44-5.27,11.76-13.46,22.46-24.34,29.52-33.82,21.94-66.22-3.72-92.75-23.64-4.96-3.72-11.73-7.55-16.88-4.1-2.79,1.87-4.04,5.46-3.87,8.82.17,3.35,1.56,6.52,3.11,9.5,25.54,49,94.27,56.59,134.84,22.13,17.4-14.78,25.56-35.89,22.51-58.66Z" fill="#3a3736"/><path d="m441.48,757.14c5.78,12.26,20.55,24.99,26.97,30.53,20.79,17.94,49.2,33.33,77.25,33.75,26.18.4,52.11-7.18,74.03-21.47,22.75-14.83,38.14-34.76,48.29-59.8,4.65-11.47,22.97-55.09-.53-56.76-11.18-.8-14.84,8.8-16.26,18.02-13.67,43.8-51.59,79.35-99.17,80.7-34.29,1.34-68.39-15.09-89.22-42.2-4.33-5.64-13.71-6.76-19.09-1.99-5.95,5.27-5.6,12.17-2.27,19.23Z" fill="#3a3736"/><path d="m440.69,350.58c-3.19-3.4-7.69-5.28-12.35-5.15-12.34.34-24.47,1.87-36.05,4.54-23.81,5.55-47.08,16.88-67.31,32.78-9.81,7.71-19.03,16.59-27.41,26.38-4.14,4.84-8.11,9.96-11.8,15.22l-1.11,1.57c-3.21,4.53-6.53,9.22-8.41,14.54-.52,1.48-.54,2.78-.05,4.24,1.05,3.12,4.1,5.59,7.6,6.13.38.06.75.1,1.11.13,7.45.6,11.58-4.88,14.93-9.32,4.02-5.34,8.44-10.52,13.13-15.42,9.44-9.84,19.95-18.48,31.25-25.68,4.06-2.59,8.26-5.01,12.49-7.2,21.51-11.05,46.2-16.33,71.4-15.27,8.71.37,16.15-6.13,16.95-14.79.43-4.66-1.16-9.29-4.36-12.7Z" fill="#3a3736"/><path d="m623.79,356.47c2.67-3.83,6.85-6.33,11.48-6.88,12.26-1.44,24.48-1.67,36.33-.69,24.36,2.07,49.02,9.93,71.32,22.75,10.82,6.21,21.22,13.67,30.92,22.16,4.79,4.2,9.46,8.69,13.87,13.36l1.33,1.4c3.83,4.02,7.79,8.18,10.41,13.18.73,1.39.94,2.68.66,4.18-.59,3.24-3.25,6.12-6.64,7.16-.36.11-.72.21-1.08.29-7.29,1.67-12.16-3.16-16.11-7.08-4.75-4.7-9.86-9.2-15.21-13.37-10.76-8.38-22.4-15.41-34.62-20.91-4.39-1.98-8.9-3.77-13.4-5.32-22.87-7.84-48.07-9.51-72.85-4.84-8.56,1.62-16.87-3.74-18.9-12.2-1.09-4.55-.19-9.36,2.49-13.2Z" fill="#3a3736"/></svg>